<svg width="18" height="32" viewBox="0 0 18 32" fill="none" xmlns="http://www.w3.org/2000/svg">
<path d="M14.1506 31.3287C15.0303 32.2238 16.4567 32.2238 17.3364 31.3287C18.2161 30.4337 18.2161 28.9826 17.3364 28.0876L5.44588 16.0132L17.3364 3.93888C17.7611 3.51031 18 2.92691 18 2.31831C18 1.70972 17.7611 1.12632 17.3364 0.697746C16.9151 0.265642 16.3417 0.0225906 15.7435 0.0225906C15.1453 0.0225906 14.5719 0.265642 14.1506 0.697746L0.689674 14.3927C0.264954 14.8213 0.0260544 15.4046 0.0260544 16.0132C0.0260544 16.6218 0.264954 17.2052 0.689674 17.6338L14.1506 31.3287Z" fill="#1A1A1A"/>
</svg>
